G04 start of page 8 for group -4015 idx -4015 *
G04 Title: Dom32RF, toppaste *
G04 Creator: pcb 4.0.2 *
G04 CreationDate: Tue Feb 12 11:34:35 2019 UTC *
G04 For: walter *
G04 Format: Gerber/RS-274X *
G04 PCB-Dimensions (mil): 1181.10 1181.10 *
G04 PCB-Coordinate-Origin: lower left *
%MOIN*%
%FSLAX25Y25*%
%LNTOPPASTE*%
%ADD44C,0.0001*%
G54D44*G36*
X30190Y92922D02*X25790D01*
Y87922D01*
X30190D01*
Y92922D01*
G37*
G36*
X37990D02*X33590D01*
Y87922D01*
X37990D01*
Y92922D01*
G37*
G36*
X34090Y101516D02*X29690D01*
Y96516D01*
X34090D01*
Y101516D01*
G37*
G36*
X19292Y75788D02*Y70670D01*
X25196D01*
Y75788D01*
X19292D01*
G37*
G36*
Y82874D02*Y77756D01*
X25196D01*
Y82874D01*
X19292D01*
G37*
G36*
X31103Y75788D02*Y70670D01*
X37007D01*
Y75788D01*
X31103D01*
G37*
G36*
Y82874D02*Y77756D01*
X37007D01*
Y82874D01*
X31103D01*
G37*
G36*
X19292Y56497D02*Y51379D01*
X25196D01*
Y56497D01*
X19292D01*
G37*
G36*
Y63583D02*Y58465D01*
X25196D01*
Y63583D01*
X19292D01*
G37*
G36*
X54825Y14626D02*X48325D01*
Y7626D01*
X54825D01*
Y14626D01*
G37*
G36*
X64825D02*X58325D01*
Y7626D01*
X64825D01*
Y14626D01*
G37*
G36*
X74825D02*X68325D01*
Y7626D01*
X74825D01*
Y14626D01*
G37*
G36*
X84825D02*X78325D01*
Y7626D01*
X84825D01*
Y14626D01*
G37*
G36*
X94825D02*X88325D01*
Y7626D01*
X94825D01*
Y14626D01*
G37*
G36*
X104825D02*X98325D01*
Y7626D01*
X104825D01*
Y14626D01*
G37*
G36*
Y72988D02*X98325D01*
Y65988D01*
X104825D01*
Y72988D01*
G37*
G36*
X94825D02*X88325D01*
Y65988D01*
X94825D01*
Y72988D01*
G37*
G36*
X84825D02*X78325D01*
Y65988D01*
X84825D01*
Y72988D01*
G37*
G36*
X74825D02*X68325D01*
Y65988D01*
X74825D01*
Y72988D01*
G37*
G36*
X64825D02*X58325D01*
Y65988D01*
X64825D01*
Y72988D01*
G37*
G36*
X54825D02*X48325D01*
Y65988D01*
X54825D01*
Y72988D01*
G37*
G36*
X46715Y91386D02*Y79086D01*
X70215D01*
Y91386D01*
X46715D01*
G37*
G36*
Y114386D02*Y102086D01*
X70215D01*
Y114386D01*
X46715D01*
G37*
G36*
X34450Y55315D02*Y50197D01*
X40354D01*
Y55315D01*
X34450D01*
G37*
G36*
Y48229D02*Y43111D01*
X40354D01*
Y48229D01*
X34450D01*
G37*
G36*
X40944Y13976D02*X35826D01*
Y8072D01*
X40944D01*
Y13976D01*
G37*
G36*
X33858D02*X28740D01*
Y8072D01*
X33858D01*
Y13976D01*
G37*
M02*
