G04 start of page 5 for group -4063 idx -4063 *
G04 Title: Dom32RF, componentmask *
G04 Creator: pcb 4.0.2 *
G04 CreationDate: Tue Feb 12 11:34:35 2019 UTC *
G04 For: walter *
G04 Format: Gerber/RS-274X *
G04 PCB-Dimensions (mil): 1181.10 1181.10 *
G04 PCB-Coordinate-Origin: lower left *
%MOIN*%
%FSLAX25Y25*%
%LNTOPMASK*%
%ADD36C,0.0984*%
%ADD35C,0.0787*%
%ADD34C,0.0001*%
G54D34*G36*
X6142Y102795D02*Y94921D01*
X14016D01*
Y102795D01*
X6142D01*
G37*
G54D35*X10079Y88858D03*
G54D36*X101575Y101654D03*
X91575Y91654D03*
Y111654D03*
X111575Y91654D03*
Y111654D03*
G54D35*X10079Y78858D03*
Y68858D03*
Y58858D03*
Y48858D03*
Y38858D03*
Y28858D03*
Y18858D03*
G54D34*G36*
X56325Y16126D02*X46825D01*
Y6126D01*
X56325D01*
Y16126D01*
G37*
G36*
X66325D02*X56825D01*
Y6126D01*
X66325D01*
Y16126D01*
G37*
G36*
X76325D02*X66825D01*
Y6126D01*
X76325D01*
Y16126D01*
G37*
G36*
X86325D02*X76825D01*
Y6126D01*
X86325D01*
Y16126D01*
G37*
G36*
X96325D02*X86825D01*
Y6126D01*
X96325D01*
Y16126D01*
G37*
G36*
X106325D02*X96825D01*
Y6126D01*
X106325D01*
Y16126D01*
G37*
G36*
Y74488D02*X96825D01*
Y64488D01*
X106325D01*
Y74488D01*
G37*
G36*
X96325D02*X86825D01*
Y64488D01*
X96325D01*
Y74488D01*
G37*
G36*
X86325D02*X76825D01*
Y64488D01*
X86325D01*
Y74488D01*
G37*
G36*
X76325D02*X66825D01*
Y64488D01*
X76325D01*
Y74488D01*
G37*
G36*
X66325D02*X56825D01*
Y64488D01*
X66325D01*
Y74488D01*
G37*
G36*
X46415Y91686D02*Y78786D01*
X70515D01*
Y91686D01*
X46415D01*
G37*
G36*
Y114686D02*Y101786D01*
X70515D01*
Y114686D01*
X46415D01*
G37*
G36*
X56325Y74488D02*X46825D01*
Y64488D01*
X56325D01*
Y74488D01*
G37*
G36*
X18992Y76088D02*Y70370D01*
X25496D01*
Y76088D01*
X18992D01*
G37*
G36*
Y83174D02*Y77456D01*
X25496D01*
Y83174D01*
X18992D01*
G37*
G36*
X30803Y76088D02*Y70370D01*
X37307D01*
Y76088D01*
X30803D01*
G37*
G36*
Y83174D02*Y77456D01*
X37307D01*
Y83174D01*
X30803D01*
G37*
G36*
X31690Y94422D02*X24290D01*
Y86422D01*
X31690D01*
Y94422D01*
G37*
G36*
X39490D02*X32090D01*
Y86422D01*
X39490D01*
Y94422D01*
G37*
G36*
X35590Y103016D02*X28190D01*
Y95016D01*
X35590D01*
Y103016D01*
G37*
G36*
X18992Y56797D02*Y51079D01*
X25496D01*
Y56797D01*
X18992D01*
G37*
G36*
Y63883D02*Y58165D01*
X25496D01*
Y63883D01*
X18992D01*
G37*
G36*
X34150Y55615D02*Y49897D01*
X40654D01*
Y55615D01*
X34150D01*
G37*
G36*
Y48529D02*Y42811D01*
X40654D01*
Y48529D01*
X34150D01*
G37*
G36*
X41244Y14276D02*X35526D01*
Y7772D01*
X41244D01*
Y14276D01*
G37*
G36*
X34158D02*X28440D01*
Y7772D01*
X34158D01*
Y14276D01*
G37*
M02*
