G04 start of page 9 for group -3984 idx -3984 *
G04 Title: Dom32RF, fab *
G04 Creator: pcb 4.0.2 *
G04 CreationDate: Tue Feb 12 11:34:35 2019 UTC *
G04 For: walter *
G04 Format: Gerber/RS-274X *
G04 PCB-Dimensions (mil): 1181.10 1181.10 *
G04 PCB-Coordinate-Origin: lower left *
%MOIN*%
%FSLAX25Y25*%
%LNFAB*%
%ADD48C,0.0100*%
%ADD47C,0.0075*%
%ADD46C,0.0060*%
%ADD45R,0.0080X0.0080*%
G54D45*X90775Y91654D02*G75*G03X92375Y91654I800J0D01*G01*
G75*G03X90775Y91654I-800J0D01*G01*
Y111654D02*G75*G03X92375Y111654I800J0D01*G01*
G75*G03X90775Y111654I-800J0D01*G01*
X110775Y91654D02*G75*G03X112375Y91654I800J0D01*G01*
G75*G03X110775Y91654I-800J0D01*G01*
Y111654D02*G75*G03X112375Y111654I800J0D01*G01*
G75*G03X110775Y111654I-800J0D01*G01*
X14200Y129360D02*G75*G03X15800Y129360I800J0D01*G01*
G75*G03X14200Y129360I-800J0D01*G01*
G54D46*X135000Y131610D02*X136500Y128610D01*
X138000Y131610D01*
X136500Y128610D02*Y125610D01*
X139800Y128910D02*X142050D01*
X139800Y125610D02*X142800D01*
X139800Y131610D02*Y125610D01*
Y131610D02*X142800D01*
X147600D02*X148350Y130860D01*
X145350Y131610D02*X147600D01*
X144600Y130860D02*X145350Y131610D01*
X144600Y130860D02*Y129360D01*
X145350Y128610D01*
X147600D01*
X148350Y127860D01*
Y126360D01*
X147600Y125610D02*X148350Y126360D01*
X145350Y125610D02*X147600D01*
X144600Y126360D02*X145350Y125610D01*
X98000Y127860D02*X101000Y131610D01*
X98000Y127860D02*X101750D01*
X101000Y131610D02*Y125610D01*
X45000Y126360D02*X45750Y125610D01*
X45000Y130860D02*Y126360D01*
Y130860D02*X45750Y131610D01*
X47250D01*
X48000Y130860D01*
Y126360D01*
X47250Y125610D02*X48000Y126360D01*
X45750Y125610D02*X47250D01*
X45000Y127110D02*X48000Y130110D01*
X49800Y125610D02*X50550D01*
X52350Y126360D02*X53100Y125610D01*
X52350Y130860D02*Y126360D01*
Y130860D02*X53100Y131610D01*
X54600D01*
X55350Y130860D01*
Y126360D01*
X54600Y125610D02*X55350Y126360D01*
X53100Y125610D02*X54600D01*
X52350Y127110D02*X55350Y130110D01*
X57150Y131610D02*X60150D01*
X57150D02*Y128610D01*
X57900Y129360D01*
X59400D01*
X60150Y128610D01*
Y126360D01*
X59400Y125610D02*X60150Y126360D01*
X57900Y125610D02*X59400D01*
X57150Y126360D02*X57900Y125610D01*
X62700D02*X64950Y128610D01*
Y130860D02*Y128610D01*
X64200Y131610D02*X64950Y130860D01*
X62700Y131610D02*X64200D01*
X61950Y130860D02*X62700Y131610D01*
X61950Y130860D02*Y129360D01*
X62700Y128610D01*
X64950D01*
X100375Y102854D02*X102775Y100454D01*
X100375D02*X102775Y102854D01*
X13800Y145560D02*X16200Y143160D01*
X13800D02*X16200Y145560D01*
X135000Y146610D02*X136500Y143610D01*
X138000Y146610D01*
X136500Y143610D02*Y140610D01*
X139800Y143910D02*X142050D01*
X139800Y140610D02*X142800D01*
X139800Y146610D02*Y140610D01*
Y146610D02*X142800D01*
X147600D02*X148350Y145860D01*
X145350Y146610D02*X147600D01*
X144600Y145860D02*X145350Y146610D01*
X144600Y145860D02*Y144360D01*
X145350Y143610D01*
X147600D01*
X148350Y142860D01*
Y141360D01*
X147600Y140610D02*X148350Y141360D01*
X145350Y140610D02*X147600D01*
X144600Y141360D02*X145350Y140610D01*
X98000Y145410D02*X99200Y146610D01*
Y140610D01*
X98000D02*X100250D01*
X45000Y141360D02*X45750Y140610D01*
X45000Y145860D02*Y141360D01*
Y145860D02*X45750Y146610D01*
X47250D01*
X48000Y145860D01*
Y141360D01*
X47250Y140610D02*X48000Y141360D01*
X45750Y140610D02*X47250D01*
X45000Y142110D02*X48000Y145110D01*
X49800Y140610D02*X50550D01*
X52350Y141360D02*X53100Y140610D01*
X52350Y145860D02*Y141360D01*
Y145860D02*X53100Y146610D01*
X54600D01*
X55350Y145860D01*
Y141360D01*
X54600Y140610D02*X55350Y141360D01*
X53100Y140610D02*X54600D01*
X52350Y142110D02*X55350Y145110D01*
X57150Y142860D02*X60150Y146610D01*
X57150Y142860D02*X60900D01*
X60150Y146610D02*Y140610D01*
X63450D02*X65700Y143610D01*
Y145860D02*Y143610D01*
X64950Y146610D02*X65700Y145860D01*
X63450Y146610D02*X64950D01*
X62700Y145860D02*X63450Y146610D01*
X62700Y145860D02*Y144360D01*
X63450Y143610D01*
X65700D01*
X10079Y100458D02*Y97258D01*
X8479Y98858D02*X11679D01*
X10079Y90458D02*Y87258D01*
X8479Y88858D02*X11679D01*
X10079Y80458D02*Y77258D01*
X8479Y78858D02*X11679D01*
X10079Y70458D02*Y67258D01*
X8479Y68858D02*X11679D01*
X10079Y60458D02*Y57258D01*
X8479Y58858D02*X11679D01*
X10079Y50458D02*Y47258D01*
X8479Y48858D02*X11679D01*
X10079Y40458D02*Y37258D01*
X8479Y38858D02*X11679D01*
X10079Y30458D02*Y27258D01*
X8479Y28858D02*X11679D01*
X10079Y20458D02*Y17258D01*
X8479Y18858D02*X11679D01*
X15000Y160960D02*Y157760D01*
X13400Y159360D02*X16600D01*
X135000Y161610D02*X136500Y158610D01*
X138000Y161610D01*
X136500Y158610D02*Y155610D01*
X139800Y158910D02*X142050D01*
X139800Y155610D02*X142800D01*
X139800Y161610D02*Y155610D01*
Y161610D02*X142800D01*
X147600D02*X148350Y160860D01*
X145350Y161610D02*X147600D01*
X144600Y160860D02*X145350Y161610D01*
X144600Y160860D02*Y159360D01*
X145350Y158610D01*
X147600D01*
X148350Y157860D01*
Y156360D01*
X147600Y155610D02*X148350Y156360D01*
X145350Y155610D02*X147600D01*
X144600Y156360D02*X145350Y155610D01*
X98750D02*X101000Y158610D01*
Y160860D02*Y158610D01*
X100250Y161610D02*X101000Y160860D01*
X98750Y161610D02*X100250D01*
X98000Y160860D02*X98750Y161610D01*
X98000Y160860D02*Y159360D01*
X98750Y158610D01*
X101000D01*
X45000Y156360D02*X45750Y155610D01*
X45000Y160860D02*Y156360D01*
Y160860D02*X45750Y161610D01*
X47250D01*
X48000Y160860D01*
Y156360D01*
X47250Y155610D02*X48000Y156360D01*
X45750Y155610D02*X47250D01*
X45000Y157110D02*X48000Y160110D01*
X49800Y155610D02*X50550D01*
X52350Y156360D02*X53100Y155610D01*
X52350Y160860D02*Y156360D01*
Y160860D02*X53100Y161610D01*
X54600D01*
X55350Y160860D01*
Y156360D01*
X54600Y155610D02*X55350Y156360D01*
X53100Y155610D02*X54600D01*
X52350Y157110D02*X55350Y160110D01*
X57150Y160860D02*X57900Y161610D01*
X59400D01*
X60150Y160860D01*
X59400Y155610D02*X60150Y156360D01*
X57900Y155610D02*X59400D01*
X57150Y156360D02*X57900Y155610D01*
Y158910D02*X59400D01*
X60150Y160860D02*Y159660D01*
Y158160D02*Y156360D01*
Y158160D02*X59400Y158910D01*
X60150Y159660D02*X59400Y158910D01*
X62700Y155610D02*X64950Y158610D01*
Y160860D02*Y158610D01*
X64200Y161610D02*X64950Y160860D01*
X62700Y161610D02*X64200D01*
X61950Y160860D02*X62700Y161610D01*
X61950Y160860D02*Y159360D01*
X62700Y158610D01*
X64950D01*
X30512Y59843D02*Y58243D01*
Y59843D02*X31898Y60643D01*
X30512Y59843D02*X29125Y60643D01*
X42717Y59843D02*Y58243D01*
Y59843D02*X44103Y60643D01*
X42717Y59843D02*X41330Y60643D01*
X15000Y174360D02*Y172760D01*
Y174360D02*X16387Y175160D01*
X15000Y174360D02*X13613Y175160D01*
X135000Y176610D02*X136500Y173610D01*
X138000Y176610D01*
X136500Y173610D02*Y170610D01*
X139800Y173910D02*X142050D01*
X139800Y170610D02*X142800D01*
X139800Y176610D02*Y170610D01*
Y176610D02*X142800D01*
X147600D02*X148350Y175860D01*
X145350Y176610D02*X147600D01*
X144600Y175860D02*X145350Y176610D01*
X144600Y175860D02*Y174360D01*
X145350Y173610D01*
X147600D01*
X148350Y172860D01*
Y171360D01*
X147600Y170610D02*X148350Y171360D01*
X145350Y170610D02*X147600D01*
X144600Y171360D02*X145350Y170610D01*
X98000Y175860D02*X98750Y176610D01*
X101000D01*
X101750Y175860D01*
Y174360D01*
X98000Y170610D02*X101750Y174360D01*
X98000Y170610D02*X101750D01*
X45000Y171360D02*X45750Y170610D01*
X45000Y175860D02*Y171360D01*
Y175860D02*X45750Y176610D01*
X47250D01*
X48000Y175860D01*
Y171360D01*
X47250Y170610D02*X48000Y171360D01*
X45750Y170610D02*X47250D01*
X45000Y172110D02*X48000Y175110D01*
X49800Y170610D02*X50550D01*
X52350Y171360D02*X53100Y170610D01*
X52350Y175860D02*Y171360D01*
Y175860D02*X53100Y176610D01*
X54600D01*
X55350Y175860D01*
Y171360D01*
X54600Y170610D02*X55350Y171360D01*
X53100Y170610D02*X54600D01*
X52350Y172110D02*X55350Y175110D01*
X57150Y175860D02*X57900Y176610D01*
X59400D01*
X60150Y175860D01*
X59400Y170610D02*X60150Y171360D01*
X57900Y170610D02*X59400D01*
X57150Y171360D02*X57900Y170610D01*
Y173910D02*X59400D01*
X60150Y175860D02*Y174660D01*
Y173160D02*Y171360D01*
Y173160D02*X59400Y173910D01*
X60150Y174660D02*X59400Y173910D01*
X61950Y175410D02*X63150Y176610D01*
Y170610D01*
X61950D02*X64200D01*
X3000Y191610D02*X3750Y190860D01*
X750Y191610D02*X3000D01*
X0Y190860D02*X750Y191610D01*
X0Y190860D02*Y189360D01*
X750Y188610D01*
X3000D01*
X3750Y187860D01*
Y186360D01*
X3000Y185610D02*X3750Y186360D01*
X750Y185610D02*X3000D01*
X0Y186360D02*X750Y185610D01*
X5550Y188610D02*Y186360D01*
X6300Y185610D01*
X8550Y188610D02*Y184110D01*
X7800Y183360D02*X8550Y184110D01*
X6300Y183360D02*X7800D01*
X5550Y184110D02*X6300Y183360D01*
Y185610D02*X7800D01*
X8550Y186360D01*
X11100Y187860D02*Y185610D01*
Y187860D02*X11850Y188610D01*
X12600D01*
X13350Y187860D01*
Y185610D01*
Y187860D02*X14100Y188610D01*
X14850D01*
X15600Y187860D01*
Y185610D01*
X10350Y188610D02*X11100Y187860D01*
X17400Y191610D02*Y185610D01*
Y186360D02*X18150Y185610D01*
X19650D01*
X20400Y186360D01*
Y187860D02*Y186360D01*
X19650Y188610D02*X20400Y187860D01*
X18150Y188610D02*X19650D01*
X17400Y187860D02*X18150Y188610D01*
X22200Y187860D02*Y186360D01*
Y187860D02*X22950Y188610D01*
X24450D01*
X25200Y187860D01*
Y186360D01*
X24450Y185610D02*X25200Y186360D01*
X22950Y185610D02*X24450D01*
X22200Y186360D02*X22950Y185610D01*
X27000Y191610D02*Y186360D01*
X27750Y185610D01*
X0Y182360D02*X29250D01*
X41750Y191610D02*Y185610D01*
X43700Y191610D02*X44750Y190560D01*
Y186660D01*
X43700Y185610D02*X44750Y186660D01*
X41000Y185610D02*X43700D01*
X41000Y191610D02*X43700D01*
G54D47*X46550Y190110D02*Y189960D01*
G54D46*Y187860D02*Y185610D01*
X50300Y188610D02*X51050Y187860D01*
X48800Y188610D02*X50300D01*
X48050Y187860D02*X48800Y188610D01*
X48050Y187860D02*Y186360D01*
X48800Y185610D01*
X51050Y188610D02*Y186360D01*
X51800Y185610D01*
X48800D02*X50300D01*
X51050Y186360D01*
X54350Y187860D02*Y185610D01*
Y187860D02*X55100Y188610D01*
X55850D01*
X56600Y187860D01*
Y185610D01*
Y187860D02*X57350Y188610D01*
X58100D01*
X58850Y187860D01*
Y185610D01*
X53600Y188610D02*X54350Y187860D01*
X60650Y185610D02*X61400D01*
X65900Y186360D02*X66650Y185610D01*
X65900Y190860D02*X66650Y191610D01*
X65900Y190860D02*Y186360D01*
X68450Y191610D02*X69950D01*
X69200D02*Y185610D01*
X68450D02*X69950D01*
X72500Y187860D02*Y185610D01*
Y187860D02*X73250Y188610D01*
X74000D01*
X74750Y187860D01*
Y185610D01*
X71750Y188610D02*X72500Y187860D01*
X77300Y188610D02*X79550D01*
X76550Y187860D02*X77300Y188610D01*
X76550Y187860D02*Y186360D01*
X77300Y185610D01*
X79550D01*
X81350Y191610D02*Y185610D01*
Y187860D02*X82100Y188610D01*
X83600D01*
X84350Y187860D01*
Y185610D01*
X86150Y191610D02*X86900Y190860D01*
Y186360D01*
X86150Y185610D02*X86900Y186360D01*
X41000Y182360D02*X88700D01*
X96050Y185610D02*X98000D01*
X95000Y186660D02*X96050Y185610D01*
X95000Y190560D02*Y186660D01*
Y190560D02*X96050Y191610D01*
X98000D01*
X99800Y187860D02*Y186360D01*
Y187860D02*X100550Y188610D01*
X102050D01*
X102800Y187860D01*
Y186360D01*
X102050Y185610D02*X102800Y186360D01*
X100550Y185610D02*X102050D01*
X99800Y186360D02*X100550Y185610D01*
X104600Y188610D02*Y186360D01*
X105350Y185610D01*
X106850D01*
X107600Y186360D01*
Y188610D02*Y186360D01*
X110150Y187860D02*Y185610D01*
Y187860D02*X110900Y188610D01*
X111650D01*
X112400Y187860D01*
Y185610D01*
X109400Y188610D02*X110150Y187860D01*
X114950Y191610D02*Y186360D01*
X115700Y185610D01*
X114200Y189360D02*X115700D01*
X95000Y182360D02*X117200D01*
X130750Y191610D02*Y185610D01*
X130000Y191610D02*X133000D01*
X133750Y190860D01*
Y189360D01*
X133000Y188610D02*X133750Y189360D01*
X130750Y188610D02*X133000D01*
X135550Y191610D02*Y186360D01*
X136300Y185610D01*
X140050Y188610D02*X140800Y187860D01*
X138550Y188610D02*X140050D01*
X137800Y187860D02*X138550Y188610D01*
X137800Y187860D02*Y186360D01*
X138550Y185610D01*
X140800Y188610D02*Y186360D01*
X141550Y185610D01*
X138550D02*X140050D01*
X140800Y186360D01*
X144100Y191610D02*Y186360D01*
X144850Y185610D01*
X143350Y189360D02*X144850D01*
X147100Y185610D02*X149350D01*
X146350Y186360D02*X147100Y185610D01*
X146350Y187860D02*Y186360D01*
Y187860D02*X147100Y188610D01*
X148600D01*
X149350Y187860D01*
X146350Y187110D02*X149350D01*
Y187860D02*Y187110D01*
X154150Y191610D02*Y185610D01*
X153400D02*X154150Y186360D01*
X151900Y185610D02*X153400D01*
X151150Y186360D02*X151900Y185610D01*
X151150Y187860D02*Y186360D01*
Y187860D02*X151900Y188610D01*
X153400D01*
X154150Y187860D01*
X157450Y188610D02*Y187860D01*
Y186360D02*Y185610D01*
X155950Y190860D02*Y190110D01*
Y190860D02*X156700Y191610D01*
X158200D01*
X158950Y190860D01*
Y190110D01*
X157450Y188610D02*X158950Y190110D01*
X130000Y182360D02*X160750D01*
X0Y206610D02*X3000D01*
X1500D02*Y200610D01*
X4800Y206610D02*Y200610D01*
Y202860D02*X5550Y203610D01*
X7050D01*
X7800Y202860D01*
Y200610D01*
X10350D02*X12600D01*
X9600Y201360D02*X10350Y200610D01*
X9600Y202860D02*Y201360D01*
Y202860D02*X10350Y203610D01*
X11850D01*
X12600Y202860D01*
X9600Y202110D02*X12600D01*
Y202860D02*Y202110D01*
X15150Y202860D02*Y200610D01*
Y202860D02*X15900Y203610D01*
X17400D01*
X14400D02*X15150Y202860D01*
X19950Y200610D02*X22200D01*
X19200Y201360D02*X19950Y200610D01*
X19200Y202860D02*Y201360D01*
Y202860D02*X19950Y203610D01*
X21450D01*
X22200Y202860D01*
X19200Y202110D02*X22200D01*
Y202860D02*Y202110D01*
X28950Y203610D02*X29700Y202860D01*
X27450Y203610D02*X28950D01*
X26700Y202860D02*X27450Y203610D01*
X26700Y202860D02*Y201360D01*
X27450Y200610D01*
X29700Y203610D02*Y201360D01*
X30450Y200610D01*
X27450D02*X28950D01*
X29700Y201360D01*
X33000Y202860D02*Y200610D01*
Y202860D02*X33750Y203610D01*
X35250D01*
X32250D02*X33000Y202860D01*
X37800Y200610D02*X40050D01*
X37050Y201360D02*X37800Y200610D01*
X37050Y202860D02*Y201360D01*
Y202860D02*X37800Y203610D01*
X39300D01*
X40050Y202860D01*
X37050Y202110D02*X40050D01*
Y202860D02*Y202110D01*
X44550Y202860D02*X47550Y206610D01*
X44550Y202860D02*X48300D01*
X47550Y206610D02*Y200610D01*
X55800Y206610D02*Y200610D01*
X55050D02*X55800Y201360D01*
X53550Y200610D02*X55050D01*
X52800Y201360D02*X53550Y200610D01*
X52800Y202860D02*Y201360D01*
Y202860D02*X53550Y203610D01*
X55050D01*
X55800Y202860D01*
G54D47*X57600Y205110D02*Y204960D01*
G54D46*Y202860D02*Y200610D01*
X59850Y205860D02*Y200610D01*
Y205860D02*X60600Y206610D01*
X61350D01*
X59100Y203610D02*X60600D01*
X63600Y205860D02*Y200610D01*
Y205860D02*X64350Y206610D01*
X65100D01*
X62850Y203610D02*X64350D01*
X67350Y200610D02*X69600D01*
X66600Y201360D02*X67350Y200610D01*
X66600Y202860D02*Y201360D01*
Y202860D02*X67350Y203610D01*
X68850D01*
X69600Y202860D01*
X66600Y202110D02*X69600D01*
Y202860D02*Y202110D01*
X72150Y202860D02*Y200610D01*
Y202860D02*X72900Y203610D01*
X74400D01*
X71400D02*X72150Y202860D01*
X76950Y200610D02*X79200D01*
X76200Y201360D02*X76950Y200610D01*
X76200Y202860D02*Y201360D01*
Y202860D02*X76950Y203610D01*
X78450D01*
X79200Y202860D01*
X76200Y202110D02*X79200D01*
Y202860D02*Y202110D01*
X81750Y202860D02*Y200610D01*
Y202860D02*X82500Y203610D01*
X83250D01*
X84000Y202860D01*
Y200610D01*
X81000Y203610D02*X81750Y202860D01*
X86550Y206610D02*Y201360D01*
X87300Y200610D01*
X85800Y204360D02*X87300D01*
X94500Y206610D02*Y200610D01*
X93750D02*X94500Y201360D01*
X92250Y200610D02*X93750D01*
X91500Y201360D02*X92250Y200610D01*
X91500Y202860D02*Y201360D01*
Y202860D02*X92250Y203610D01*
X93750D01*
X94500Y202860D01*
X97050D02*Y200610D01*
Y202860D02*X97800Y203610D01*
X99300D01*
X96300D02*X97050Y202860D01*
G54D47*X101100Y205110D02*Y204960D01*
G54D46*Y202860D02*Y200610D01*
X102600Y206610D02*Y201360D01*
X103350Y200610D01*
X104850Y206610D02*Y201360D01*
X105600Y200610D01*
X110550D02*X112800D01*
X113550Y201360D01*
X112800Y202110D02*X113550Y201360D01*
X110550Y202110D02*X112800D01*
X109800Y202860D02*X110550Y202110D01*
X109800Y202860D02*X110550Y203610D01*
X112800D01*
X113550Y202860D01*
X109800Y201360D02*X110550Y200610D01*
G54D47*X115350Y205110D02*Y204960D01*
G54D46*Y202860D02*Y200610D01*
X116850Y203610D02*X119850D01*
X116850Y200610D02*X119850Y203610D01*
X116850Y200610D02*X119850D01*
X122400D02*X124650D01*
X121650Y201360D02*X122400Y200610D01*
X121650Y202860D02*Y201360D01*
Y202860D02*X122400Y203610D01*
X123900D01*
X124650Y202860D01*
X121650Y202110D02*X124650D01*
Y202860D02*Y202110D01*
X127200Y200610D02*X129450D01*
X130200Y201360D01*
X129450Y202110D02*X130200Y201360D01*
X127200Y202110D02*X129450D01*
X126450Y202860D02*X127200Y202110D01*
X126450Y202860D02*X127200Y203610D01*
X129450D01*
X130200Y202860D01*
X126450Y201360D02*X127200Y200610D01*
X134700Y203610D02*Y201360D01*
X135450Y200610D01*
X136950D01*
X137700Y201360D01*
Y203610D02*Y201360D01*
X140250Y200610D02*X142500D01*
X143250Y201360D01*
X142500Y202110D02*X143250Y201360D01*
X140250Y202110D02*X142500D01*
X139500Y202860D02*X140250Y202110D01*
X139500Y202860D02*X140250Y203610D01*
X142500D01*
X143250Y202860D01*
X139500Y201360D02*X140250Y200610D01*
X145800D02*X148050D01*
X145050Y201360D02*X145800Y200610D01*
X145050Y202860D02*Y201360D01*
Y202860D02*X145800Y203610D01*
X147300D01*
X148050Y202860D01*
X145050Y202110D02*X148050D01*
Y202860D02*Y202110D01*
X152850Y206610D02*Y200610D01*
X152100D02*X152850Y201360D01*
X150600Y200610D02*X152100D01*
X149850Y201360D02*X150600Y200610D01*
X149850Y202860D02*Y201360D01*
Y202860D02*X150600Y203610D01*
X152100D01*
X152850Y202860D01*
G54D47*X157350Y205110D02*Y204960D01*
G54D46*Y202860D02*Y200610D01*
X159600Y202860D02*Y200610D01*
Y202860D02*X160350Y203610D01*
X161100D01*
X161850Y202860D01*
Y200610D01*
X158850Y203610D02*X159600Y202860D01*
X167100Y206610D02*Y201360D01*
X167850Y200610D01*
X166350Y204360D02*X167850D01*
X169350Y206610D02*Y200610D01*
Y202860D02*X170100Y203610D01*
X171600D01*
X172350Y202860D01*
Y200610D01*
G54D47*X174150Y205110D02*Y204960D01*
G54D46*Y202860D02*Y200610D01*
X176400D02*X178650D01*
X179400Y201360D01*
X178650Y202110D02*X179400Y201360D01*
X176400Y202110D02*X178650D01*
X175650Y202860D02*X176400Y202110D01*
X175650Y202860D02*X176400Y203610D01*
X178650D01*
X179400Y202860D01*
X175650Y201360D02*X176400Y200610D01*
X183900Y206610D02*Y201360D01*
X184650Y200610D01*
X188400Y203610D02*X189150Y202860D01*
X186900Y203610D02*X188400D01*
X186150Y202860D02*X186900Y203610D01*
X186150Y202860D02*Y201360D01*
X186900Y200610D01*
X189150Y203610D02*Y201360D01*
X189900Y200610D01*
X186900D02*X188400D01*
X189150Y201360D01*
X191700Y203610D02*Y201360D01*
X192450Y200610D01*
X194700Y203610D02*Y199110D01*
X193950Y198360D02*X194700Y199110D01*
X192450Y198360D02*X193950D01*
X191700Y199110D02*X192450Y198360D01*
Y200610D02*X193950D01*
X194700Y201360D01*
X196500Y202860D02*Y201360D01*
Y202860D02*X197250Y203610D01*
X198750D01*
X199500Y202860D01*
Y201360D01*
X198750Y200610D02*X199500Y201360D01*
X197250Y200610D02*X198750D01*
X196500Y201360D02*X197250Y200610D01*
X201300Y203610D02*Y201360D01*
X202050Y200610D01*
X203550D01*
X204300Y201360D01*
Y203610D02*Y201360D01*
X206850Y206610D02*Y201360D01*
X207600Y200610D01*
X206100Y204360D02*X207600D01*
X209100Y199110D02*X210600Y200610D01*
X215100Y205410D02*X216300Y206610D01*
Y200610D01*
X215100D02*X217350D01*
X221400Y206610D02*X222150Y205860D01*
X219900Y206610D02*X221400D01*
X219150Y205860D02*X219900Y206610D01*
X219150Y205860D02*Y201360D01*
X219900Y200610D01*
X221400Y203910D02*X222150Y203160D01*
X219150Y203910D02*X221400D01*
X219900Y200610D02*X221400D01*
X222150Y201360D01*
Y203160D02*Y201360D01*
X226650Y206610D02*Y200610D01*
Y202860D02*X227400Y203610D01*
X228900D01*
X229650Y202860D01*
Y200610D01*
X231450Y202860D02*Y201360D01*
Y202860D02*X232200Y203610D01*
X233700D01*
X234450Y202860D01*
Y201360D01*
X233700Y200610D02*X234450Y201360D01*
X232200Y200610D02*X233700D01*
X231450Y201360D02*X232200Y200610D01*
X236250Y206610D02*Y201360D01*
X237000Y200610D01*
X239250D02*X241500D01*
X238500Y201360D02*X239250Y200610D01*
X238500Y202860D02*Y201360D01*
Y202860D02*X239250Y203610D01*
X240750D01*
X241500Y202860D01*
X238500Y202110D02*X241500D01*
Y202860D02*Y202110D01*
X244050Y200610D02*X246300D01*
X247050Y201360D01*
X246300Y202110D02*X247050Y201360D01*
X244050Y202110D02*X246300D01*
X243300Y202860D02*X244050Y202110D01*
X243300Y202860D02*X244050Y203610D01*
X246300D01*
X247050Y202860D01*
X243300Y201360D02*X244050Y200610D01*
X252300Y206610D02*Y201360D01*
X253050Y200610D01*
X251550Y204360D02*X253050D01*
X254550Y202860D02*Y201360D01*
Y202860D02*X255300Y203610D01*
X256800D01*
X257550Y202860D01*
Y201360D01*
X256800Y200610D02*X257550Y201360D01*
X255300Y200610D02*X256800D01*
X254550Y201360D02*X255300Y200610D01*
X260100Y206610D02*Y201360D01*
X260850Y200610D01*
X259350Y204360D02*X260850D01*
X264600Y203610D02*X265350Y202860D01*
X263100Y203610D02*X264600D01*
X262350Y202860D02*X263100Y203610D01*
X262350Y202860D02*Y201360D01*
X263100Y200610D01*
X265350Y203610D02*Y201360D01*
X266100Y200610D01*
X263100D02*X264600D01*
X265350Y201360D01*
X267900Y206610D02*Y201360D01*
X268650Y200610D01*
G54D48*X0Y118110D02*X118110D01*
X0D02*Y0D01*
X118110Y118110D02*Y0D01*
X0D02*X118110D01*
G54D46*X200000Y131610D02*Y125610D01*
Y131610D02*X202250Y128610D01*
X204500Y131610D01*
Y125610D01*
X208550Y128610D02*X209300Y127860D01*
X207050Y128610D02*X208550D01*
X206300Y127860D02*X207050Y128610D01*
X206300Y127860D02*Y126360D01*
X207050Y125610D01*
X209300Y128610D02*Y126360D01*
X210050Y125610D01*
X207050D02*X208550D01*
X209300Y126360D01*
X211850Y128610D02*X214850Y125610D01*
X211850D02*X214850Y128610D01*
G54D47*X216650Y130110D02*Y129960D01*
G54D46*Y127860D02*Y125610D01*
X218900Y127860D02*Y125610D01*
Y127860D02*X219650Y128610D01*
X220400D01*
X221150Y127860D01*
Y125610D01*
Y127860D02*X221900Y128610D01*
X222650D01*
X223400Y127860D01*
Y125610D01*
X218150Y128610D02*X218900Y127860D01*
X225200Y128610D02*Y126360D01*
X225950Y125610D01*
X227450D01*
X228200Y126360D01*
Y128610D02*Y126360D01*
X230750Y127860D02*Y125610D01*
Y127860D02*X231500Y128610D01*
X232250D01*
X233000Y127860D01*
Y125610D01*
Y127860D02*X233750Y128610D01*
X234500D01*
X235250Y127860D01*
Y125610D01*
X230000Y128610D02*X230750Y127860D01*
X240500Y131610D02*Y125610D01*
X242450Y131610D02*X243500Y130560D01*
Y126660D01*
X242450Y125610D02*X243500Y126660D01*
X239750Y125610D02*X242450D01*
X239750Y131610D02*X242450D01*
G54D47*X245300Y130110D02*Y129960D01*
G54D46*Y127860D02*Y125610D01*
X247550Y127860D02*Y125610D01*
Y127860D02*X248300Y128610D01*
X249050D01*
X249800Y127860D01*
Y125610D01*
Y127860D02*X250550Y128610D01*
X251300D01*
X252050Y127860D01*
Y125610D01*
X246800Y128610D02*X247550Y127860D01*
X254600Y125610D02*X256850D01*
X253850Y126360D02*X254600Y125610D01*
X253850Y127860D02*Y126360D01*
Y127860D02*X254600Y128610D01*
X256100D01*
X256850Y127860D01*
X253850Y127110D02*X256850D01*
Y127860D02*Y127110D01*
X259400Y127860D02*Y125610D01*
Y127860D02*X260150Y128610D01*
X260900D01*
X261650Y127860D01*
Y125610D01*
X258650Y128610D02*X259400Y127860D01*
X264200Y125610D02*X266450D01*
X267200Y126360D01*
X266450Y127110D02*X267200Y126360D01*
X264200Y127110D02*X266450D01*
X263450Y127860D02*X264200Y127110D01*
X263450Y127860D02*X264200Y128610D01*
X266450D01*
X267200Y127860D01*
X263450Y126360D02*X264200Y125610D01*
G54D47*X269000Y130110D02*Y129960D01*
G54D46*Y127860D02*Y125610D01*
X270500Y127860D02*Y126360D01*
Y127860D02*X271250Y128610D01*
X272750D01*
X273500Y127860D01*
Y126360D01*
X272750Y125610D02*X273500Y126360D01*
X271250Y125610D02*X272750D01*
X270500Y126360D02*X271250Y125610D01*
X276050Y127860D02*Y125610D01*
Y127860D02*X276800Y128610D01*
X277550D01*
X278300Y127860D01*
Y125610D01*
X275300Y128610D02*X276050Y127860D01*
X280850Y125610D02*X283100D01*
X283850Y126360D01*
X283100Y127110D02*X283850Y126360D01*
X280850Y127110D02*X283100D01*
X280100Y127860D02*X280850Y127110D01*
X280100Y127860D02*X280850Y128610D01*
X283100D01*
X283850Y127860D01*
X280100Y126360D02*X280850Y125610D01*
X285650Y129360D02*X286400D01*
X285650Y127860D02*X286400D01*
X290900Y130410D02*X292100Y131610D01*
Y125610D01*
X290900D02*X293150D01*
X294950Y130410D02*X296150Y131610D01*
Y125610D01*
X294950D02*X297200D01*
X299000Y126360D02*X299750Y125610D01*
X299000Y127560D02*Y126360D01*
Y127560D02*X300050Y128610D01*
X300950D01*
X302000Y127560D01*
Y126360D01*
X301250Y125610D02*X302000Y126360D01*
X299750Y125610D02*X301250D01*
X299000Y129660D02*X300050Y128610D01*
X299000Y130860D02*Y129660D01*
Y130860D02*X299750Y131610D01*
X301250D01*
X302000Y130860D01*
Y129660D01*
X300950Y128610D02*X302000Y129660D01*
X303800Y130410D02*X305000Y131610D01*
Y125610D01*
X303800D02*X306050D01*
X307850D02*X308600D01*
X310400Y130410D02*X311600Y131610D01*
Y125610D01*
X310400D02*X312650D01*
X314450Y126360D02*X315200Y125610D01*
X314450Y130860D02*Y126360D01*
Y130860D02*X315200Y131610D01*
X316700D01*
X317450Y130860D01*
Y126360D01*
X316700Y125610D02*X317450Y126360D01*
X315200Y125610D02*X316700D01*
X314450Y127110D02*X317450Y130110D01*
X319250Y130860D02*X320000Y131610D01*
X322250D01*
X323000Y130860D01*
Y129360D01*
X319250Y125610D02*X323000Y129360D01*
X319250Y125610D02*X323000D01*
X324800Y130860D02*X325550Y131610D01*
X327050D01*
X327800Y130860D01*
X327050Y125610D02*X327800Y126360D01*
X325550Y125610D02*X327050D01*
X324800Y126360D02*X325550Y125610D01*
Y128910D02*X327050D01*
X327800Y130860D02*Y129660D01*
Y128160D02*Y126360D01*
Y128160D02*X327050Y128910D01*
X327800Y129660D02*X327050Y128910D01*
X331850Y131610D02*X332600Y130860D01*
X330350Y131610D02*X331850D01*
X329600Y130860D02*X330350Y131610D01*
X329600Y130860D02*Y126360D01*
X330350Y125610D01*
X331850Y128910D02*X332600Y128160D01*
X329600Y128910D02*X331850D01*
X330350Y125610D02*X331850D01*
X332600Y126360D01*
Y128160D02*Y126360D01*
X334400Y130860D02*X335150Y131610D01*
X337400D01*
X338150Y130860D01*
Y129360D01*
X334400Y125610D02*X338150Y129360D01*
X334400Y125610D02*X338150D01*
X343400Y127860D02*Y125610D01*
Y127860D02*X344150Y128610D01*
X344900D01*
X345650Y127860D01*
Y125610D01*
Y127860D02*X346400Y128610D01*
X347150D01*
X347900Y127860D01*
Y125610D01*
X342650Y128610D02*X343400Y127860D01*
G54D47*X349700Y130110D02*Y129960D01*
G54D46*Y127860D02*Y125610D01*
X351200Y131610D02*Y126360D01*
X351950Y125610D01*
X354200D02*X356450D01*
X357200Y126360D01*
X356450Y127110D02*X357200Y126360D01*
X354200Y127110D02*X356450D01*
X353450Y127860D02*X354200Y127110D01*
X353450Y127860D02*X354200Y128610D01*
X356450D01*
X357200Y127860D01*
X353450Y126360D02*X354200Y125610D01*
X361700Y128610D02*Y126360D01*
X362450Y125610D01*
X363200D01*
X363950Y126360D01*
Y128610D02*Y126360D01*
X364700Y125610D01*
X365450D01*
X366200Y126360D01*
Y128610D02*Y126360D01*
G54D47*X368000Y130110D02*Y129960D01*
G54D46*Y127860D02*Y125610D01*
X372500Y131610D02*Y125610D01*
X371750D02*X372500Y126360D01*
X370250Y125610D02*X371750D01*
X369500Y126360D02*X370250Y125610D01*
X369500Y127860D02*Y126360D01*
Y127860D02*X370250Y128610D01*
X371750D01*
X372500Y127860D01*
X375050Y125610D02*X377300D01*
X374300Y126360D02*X375050Y125610D01*
X374300Y127860D02*Y126360D01*
Y127860D02*X375050Y128610D01*
X376550D01*
X377300Y127860D01*
X374300Y127110D02*X377300D01*
Y127860D02*Y127110D01*
X379100Y124110D02*X380600Y125610D01*
X385100Y130410D02*X386300Y131610D01*
Y125610D01*
X385100D02*X387350D01*
X389150Y130410D02*X390350Y131610D01*
Y125610D01*
X389150D02*X391400D01*
X393200Y126360D02*X393950Y125610D01*
X393200Y127560D02*Y126360D01*
Y127560D02*X394250Y128610D01*
X395150D01*
X396200Y127560D01*
Y126360D01*
X395450Y125610D02*X396200Y126360D01*
X393950Y125610D02*X395450D01*
X393200Y129660D02*X394250Y128610D01*
X393200Y130860D02*Y129660D01*
Y130860D02*X393950Y131610D01*
X395450D01*
X396200Y130860D01*
Y129660D01*
X395150Y128610D02*X396200Y129660D01*
X398000Y130410D02*X399200Y131610D01*
Y125610D01*
X398000D02*X400250D01*
X402050D02*X402800D01*
X404600Y130410D02*X405800Y131610D01*
Y125610D01*
X404600D02*X406850D01*
X408650Y126360D02*X409400Y125610D01*
X408650Y130860D02*Y126360D01*
Y130860D02*X409400Y131610D01*
X410900D01*
X411650Y130860D01*
Y126360D01*
X410900Y125610D02*X411650Y126360D01*
X409400Y125610D02*X410900D01*
X408650Y127110D02*X411650Y130110D01*
X413450Y130860D02*X414200Y131610D01*
X416450D01*
X417200Y130860D01*
Y129360D01*
X413450Y125610D02*X417200Y129360D01*
X413450Y125610D02*X417200D01*
X419000Y130860D02*X419750Y131610D01*
X421250D01*
X422000Y130860D01*
X421250Y125610D02*X422000Y126360D01*
X419750Y125610D02*X421250D01*
X419000Y126360D02*X419750Y125610D01*
Y128910D02*X421250D01*
X422000Y130860D02*Y129660D01*
Y128160D02*Y126360D01*
Y128160D02*X421250Y128910D01*
X422000Y129660D02*X421250Y128910D01*
X426050Y131610D02*X426800Y130860D01*
X424550Y131610D02*X426050D01*
X423800Y130860D02*X424550Y131610D01*
X423800Y130860D02*Y126360D01*
X424550Y125610D01*
X426050Y128910D02*X426800Y128160D01*
X423800Y128910D02*X426050D01*
X424550Y125610D02*X426050D01*
X426800Y126360D01*
Y128160D02*Y126360D01*
X428600Y130860D02*X429350Y131610D01*
X431600D01*
X432350Y130860D01*
Y129360D01*
X428600Y125610D02*X432350Y129360D01*
X428600Y125610D02*X432350D01*
X437600Y127860D02*Y125610D01*
Y127860D02*X438350Y128610D01*
X439100D01*
X439850Y127860D01*
Y125610D01*
Y127860D02*X440600Y128610D01*
X441350D01*
X442100Y127860D01*
Y125610D01*
X436850Y128610D02*X437600Y127860D01*
G54D47*X443900Y130110D02*Y129960D01*
G54D46*Y127860D02*Y125610D01*
X445400Y131610D02*Y126360D01*
X446150Y125610D01*
X448400D02*X450650D01*
X451400Y126360D01*
X450650Y127110D02*X451400Y126360D01*
X448400Y127110D02*X450650D01*
X447650Y127860D02*X448400Y127110D01*
X447650Y127860D02*X448400Y128610D01*
X450650D01*
X451400Y127860D01*
X447650Y126360D02*X448400Y125610D01*
X455900Y131610D02*Y125610D01*
Y127860D02*X456650Y128610D01*
X458150D01*
X458900Y127860D01*
Y125610D01*
G54D47*X460700Y130110D02*Y129960D01*
G54D46*Y127860D02*Y125610D01*
X464450Y128610D02*X465200Y127860D01*
X462950Y128610D02*X464450D01*
X462200Y127860D02*X462950Y128610D01*
X462200Y127860D02*Y126360D01*
X462950Y125610D01*
X464450D01*
X465200Y126360D01*
X462200Y124110D02*X462950Y123360D01*
X464450D01*
X465200Y124110D01*
Y128610D02*Y124110D01*
X467000Y131610D02*Y125610D01*
Y127860D02*X467750Y128610D01*
X469250D01*
X470000Y127860D01*
Y125610D01*
X0Y-9500D02*X3000D01*
X3750Y-8750D01*
Y-6950D02*Y-8750D01*
X3000Y-6200D02*X3750Y-6950D01*
X750Y-6200D02*X3000D01*
X750Y-3500D02*Y-9500D01*
X0Y-3500D02*X3000D01*
X3750Y-4250D01*
Y-5450D01*
X3000Y-6200D02*X3750Y-5450D01*
X5550Y-7250D02*Y-8750D01*
Y-7250D02*X6300Y-6500D01*
X7800D01*
X8550Y-7250D01*
Y-8750D01*
X7800Y-9500D02*X8550Y-8750D01*
X6300Y-9500D02*X7800D01*
X5550Y-8750D02*X6300Y-9500D01*
X12600Y-6500D02*X13350Y-7250D01*
X11100Y-6500D02*X12600D01*
X10350Y-7250D02*X11100Y-6500D01*
X10350Y-7250D02*Y-8750D01*
X11100Y-9500D01*
X13350Y-6500D02*Y-8750D01*
X14100Y-9500D01*
X11100D02*X12600D01*
X13350Y-8750D01*
X16650Y-7250D02*Y-9500D01*
Y-7250D02*X17400Y-6500D01*
X18900D01*
X15900D02*X16650Y-7250D01*
X23700Y-3500D02*Y-9500D01*
X22950D02*X23700Y-8750D01*
X21450Y-9500D02*X22950D01*
X20700Y-8750D02*X21450Y-9500D01*
X20700Y-7250D02*Y-8750D01*
Y-7250D02*X21450Y-6500D01*
X22950D01*
X23700Y-7250D01*
X28200D02*Y-8750D01*
Y-7250D02*X28950Y-6500D01*
X30450D01*
X31200Y-7250D01*
Y-8750D01*
X30450Y-9500D02*X31200Y-8750D01*
X28950Y-9500D02*X30450D01*
X28200Y-8750D02*X28950Y-9500D01*
X33000Y-6500D02*Y-8750D01*
X33750Y-9500D01*
X35250D01*
X36000Y-8750D01*
Y-6500D02*Y-8750D01*
X38550Y-3500D02*Y-8750D01*
X39300Y-9500D01*
X37800Y-5750D02*X39300D01*
X40800Y-3500D02*Y-8750D01*
X41550Y-9500D01*
G54D47*X43050Y-5000D02*Y-5150D01*
G54D46*Y-7250D02*Y-9500D01*
X45300Y-7250D02*Y-9500D01*
Y-7250D02*X46050Y-6500D01*
X46800D01*
X47550Y-7250D01*
Y-9500D01*
X44550Y-6500D02*X45300Y-7250D01*
X50100Y-9500D02*X52350D01*
X49350Y-8750D02*X50100Y-9500D01*
X49350Y-7250D02*Y-8750D01*
Y-7250D02*X50100Y-6500D01*
X51600D01*
X52350Y-7250D01*
X49350Y-8000D02*X52350D01*
Y-7250D02*Y-8000D01*
G54D47*X56850Y-5000D02*Y-5150D01*
G54D46*Y-7250D02*Y-9500D01*
X59100D02*X61350D01*
X62100Y-8750D01*
X61350Y-8000D02*X62100Y-8750D01*
X59100Y-8000D02*X61350D01*
X58350Y-7250D02*X59100Y-8000D01*
X58350Y-7250D02*X59100Y-6500D01*
X61350D01*
X62100Y-7250D01*
X58350Y-8750D02*X59100Y-9500D01*
X67350Y-3500D02*Y-8750D01*
X68100Y-9500D01*
X66600Y-5750D02*X68100D01*
X69600Y-3500D02*Y-9500D01*
Y-7250D02*X70350Y-6500D01*
X71850D01*
X72600Y-7250D01*
Y-9500D01*
X75150D02*X77400D01*
X74400Y-8750D02*X75150Y-9500D01*
X74400Y-7250D02*Y-8750D01*
Y-7250D02*X75150Y-6500D01*
X76650D01*
X77400Y-7250D01*
X74400Y-8000D02*X77400D01*
Y-7250D02*Y-8000D01*
X82650Y-6500D02*X84900D01*
X81900Y-7250D02*X82650Y-6500D01*
X81900Y-7250D02*Y-8750D01*
X82650Y-9500D01*
X84900D01*
X87450D02*X89700D01*
X86700Y-8750D02*X87450Y-9500D01*
X86700Y-7250D02*Y-8750D01*
Y-7250D02*X87450Y-6500D01*
X88950D01*
X89700Y-7250D01*
X86700Y-8000D02*X89700D01*
Y-7250D02*Y-8000D01*
X92250Y-7250D02*Y-9500D01*
Y-7250D02*X93000Y-6500D01*
X93750D01*
X94500Y-7250D01*
Y-9500D01*
X91500Y-6500D02*X92250Y-7250D01*
X97050Y-3500D02*Y-8750D01*
X97800Y-9500D01*
X96300Y-5750D02*X97800D01*
X100050Y-9500D02*X102300D01*
X99300Y-8750D02*X100050Y-9500D01*
X99300Y-7250D02*Y-8750D01*
Y-7250D02*X100050Y-6500D01*
X101550D01*
X102300Y-7250D01*
X99300Y-8000D02*X102300D01*
Y-7250D02*Y-8000D01*
X104850Y-7250D02*Y-9500D01*
Y-7250D02*X105600Y-6500D01*
X107100D01*
X104100D02*X104850Y-7250D01*
X108900Y-3500D02*Y-8750D01*
X109650Y-9500D01*
G54D47*X111150Y-5000D02*Y-5150D01*
G54D46*Y-7250D02*Y-9500D01*
X113400Y-7250D02*Y-9500D01*
Y-7250D02*X114150Y-6500D01*
X114900D01*
X115650Y-7250D01*
Y-9500D01*
X112650Y-6500D02*X113400Y-7250D01*
X118200Y-9500D02*X120450D01*
X117450Y-8750D02*X118200Y-9500D01*
X117450Y-7250D02*Y-8750D01*
Y-7250D02*X118200Y-6500D01*
X119700D01*
X120450Y-7250D01*
X117450Y-8000D02*X120450D01*
Y-7250D02*Y-8000D01*
X124950Y-7250D02*Y-8750D01*
Y-7250D02*X125700Y-6500D01*
X127200D01*
X127950Y-7250D01*
Y-8750D01*
X127200Y-9500D02*X127950Y-8750D01*
X125700Y-9500D02*X127200D01*
X124950Y-8750D02*X125700Y-9500D01*
X130500Y-4250D02*Y-9500D01*
Y-4250D02*X131250Y-3500D01*
X132000D01*
X129750Y-6500D02*X131250D01*
X136950Y-3500D02*Y-8750D01*
X137700Y-9500D01*
X136200Y-5750D02*X137700D01*
X139200Y-3500D02*Y-9500D01*
Y-7250D02*X139950Y-6500D01*
X141450D01*
X142200Y-7250D01*
Y-9500D01*
G54D47*X144000Y-5000D02*Y-5150D01*
G54D46*Y-7250D02*Y-9500D01*
X146250D02*X148500D01*
X149250Y-8750D01*
X148500Y-8000D02*X149250Y-8750D01*
X146250Y-8000D02*X148500D01*
X145500Y-7250D02*X146250Y-8000D01*
X145500Y-7250D02*X146250Y-6500D01*
X148500D01*
X149250Y-7250D01*
X145500Y-8750D02*X146250Y-9500D01*
X153750Y-8750D02*X154500Y-9500D01*
X153750Y-7550D02*Y-8750D01*
Y-7550D02*X154800Y-6500D01*
X155700D01*
X156750Y-7550D01*
Y-8750D01*
X156000Y-9500D02*X156750Y-8750D01*
X154500Y-9500D02*X156000D01*
X153750Y-5450D02*X154800Y-6500D01*
X153750Y-4250D02*Y-5450D01*
Y-4250D02*X154500Y-3500D01*
X156000D01*
X156750Y-4250D01*
Y-5450D01*
X155700Y-6500D02*X156750Y-5450D01*
X158550Y-9500D02*X159300D01*
X161100Y-8750D02*X161850Y-9500D01*
X161100Y-4250D02*Y-8750D01*
Y-4250D02*X161850Y-3500D01*
X163350D01*
X164100Y-4250D01*
Y-8750D01*
X163350Y-9500D02*X164100Y-8750D01*
X161850Y-9500D02*X163350D01*
X161100Y-8000D02*X164100Y-5000D01*
X165900Y-8750D02*X166650Y-9500D01*
X165900Y-4250D02*Y-8750D01*
Y-4250D02*X166650Y-3500D01*
X168150D01*
X168900Y-4250D01*
Y-8750D01*
X168150Y-9500D02*X168900Y-8750D01*
X166650Y-9500D02*X168150D01*
X165900Y-8000D02*X168900Y-5000D01*
X170700Y-8750D02*X171450Y-9500D01*
X170700Y-4250D02*Y-8750D01*
Y-4250D02*X171450Y-3500D01*
X172950D01*
X173700Y-4250D01*
Y-8750D01*
X172950Y-9500D02*X173700Y-8750D01*
X171450Y-9500D02*X172950D01*
X170700Y-8000D02*X173700Y-5000D01*
X175500Y-8750D02*X176250Y-9500D01*
X175500Y-4250D02*Y-8750D01*
Y-4250D02*X176250Y-3500D01*
X177750D01*
X178500Y-4250D01*
Y-8750D01*
X177750Y-9500D02*X178500Y-8750D01*
X176250Y-9500D02*X177750D01*
X175500Y-8000D02*X178500Y-5000D01*
X180300Y-8750D02*X181050Y-9500D01*
X180300Y-4250D02*Y-8750D01*
Y-4250D02*X181050Y-3500D01*
X182550D01*
X183300Y-4250D01*
Y-8750D01*
X182550Y-9500D02*X183300Y-8750D01*
X181050Y-9500D02*X182550D01*
X180300Y-8000D02*X183300Y-5000D01*
X185100Y-8750D02*X185850Y-9500D01*
X185100Y-4250D02*Y-8750D01*
Y-4250D02*X185850Y-3500D01*
X187350D01*
X188100Y-4250D01*
Y-8750D01*
X187350Y-9500D02*X188100Y-8750D01*
X185850Y-9500D02*X187350D01*
X185100Y-8000D02*X188100Y-5000D01*
X193350Y-7250D02*Y-9500D01*
Y-7250D02*X194100Y-6500D01*
X194850D01*
X195600Y-7250D01*
Y-9500D01*
Y-7250D02*X196350Y-6500D01*
X197100D01*
X197850Y-7250D01*
Y-9500D01*
X192600Y-6500D02*X193350Y-7250D01*
G54D47*X199650Y-5000D02*Y-5150D01*
G54D46*Y-7250D02*Y-9500D01*
X201150Y-3500D02*Y-8750D01*
X201900Y-9500D01*
X206850Y-7250D02*Y-9500D01*
Y-7250D02*X207600Y-6500D01*
X209100D01*
X206100D02*X206850Y-7250D01*
X211650Y-9500D02*X213900D01*
X210900Y-8750D02*X211650Y-9500D01*
X210900Y-7250D02*Y-8750D01*
Y-7250D02*X211650Y-6500D01*
X213150D01*
X213900Y-7250D01*
X210900Y-8000D02*X213900D01*
Y-7250D02*Y-8000D01*
X216450Y-6500D02*X218700D01*
X215700Y-7250D02*X216450Y-6500D01*
X215700Y-7250D02*Y-8750D01*
X216450Y-9500D01*
X218700D01*
X221250Y-3500D02*Y-8750D01*
X222000Y-9500D01*
X220500Y-5750D02*X222000D01*
X225750Y-6500D02*X226500Y-7250D01*
X224250Y-6500D02*X225750D01*
X223500Y-7250D02*X224250Y-6500D01*
X223500Y-7250D02*Y-8750D01*
X224250Y-9500D01*
X226500Y-6500D02*Y-8750D01*
X227250Y-9500D01*
X224250D02*X225750D01*
X226500Y-8750D01*
X229800Y-7250D02*Y-9500D01*
Y-7250D02*X230550Y-6500D01*
X231300D01*
X232050Y-7250D01*
Y-9500D01*
X229050Y-6500D02*X229800Y-7250D01*
X236100Y-6500D02*X236850Y-7250D01*
X234600Y-6500D02*X236100D01*
X233850Y-7250D02*X234600Y-6500D01*
X233850Y-7250D02*Y-8750D01*
X234600Y-9500D01*
X236100D01*
X236850Y-8750D01*
X233850Y-11000D02*X234600Y-11750D01*
X236100D01*
X236850Y-11000D01*
Y-6500D02*Y-11000D01*
X238650Y-3500D02*Y-8750D01*
X239400Y-9500D01*
X241650D02*X243900D01*
X240900Y-8750D02*X241650Y-9500D01*
X240900Y-7250D02*Y-8750D01*
Y-7250D02*X241650Y-6500D01*
X243150D01*
X243900Y-7250D01*
X240900Y-8000D02*X243900D01*
Y-7250D02*Y-8000D01*
X248400Y-6500D02*X251400D01*
X255900Y-8750D02*X256650Y-9500D01*
X255900Y-4250D02*Y-8750D01*
Y-4250D02*X256650Y-3500D01*
X258150D01*
X258900Y-4250D01*
Y-8750D01*
X258150Y-9500D02*X258900Y-8750D01*
X256650Y-9500D02*X258150D01*
X255900Y-8000D02*X258900Y-5000D01*
X260700Y-11000D02*X262200Y-9500D01*
X264000Y-8750D02*X264750Y-9500D01*
X264000Y-4250D02*Y-8750D01*
Y-4250D02*X264750Y-3500D01*
X266250D01*
X267000Y-4250D01*
Y-8750D01*
X266250Y-9500D02*X267000Y-8750D01*
X264750Y-9500D02*X266250D01*
X264000Y-8000D02*X267000Y-5000D01*
X272250Y-3500D02*Y-8750D01*
X273000Y-9500D01*
X271500Y-5750D02*X273000D01*
X274500Y-7250D02*Y-8750D01*
Y-7250D02*X275250Y-6500D01*
X276750D01*
X277500Y-7250D01*
Y-8750D01*
X276750Y-9500D02*X277500Y-8750D01*
X275250Y-9500D02*X276750D01*
X274500Y-8750D02*X275250Y-9500D01*
X282000Y-4700D02*X283200Y-3500D01*
Y-9500D01*
X282000D02*X284250D01*
X286050Y-4700D02*X287250Y-3500D01*
Y-9500D01*
X286050D02*X288300D01*
X290100Y-8750D02*X290850Y-9500D01*
X290100Y-7550D02*Y-8750D01*
Y-7550D02*X291150Y-6500D01*
X292050D01*
X293100Y-7550D01*
Y-8750D01*
X292350Y-9500D02*X293100Y-8750D01*
X290850Y-9500D02*X292350D01*
X290100Y-5450D02*X291150Y-6500D01*
X290100Y-4250D02*Y-5450D01*
Y-4250D02*X290850Y-3500D01*
X292350D01*
X293100Y-4250D01*
Y-5450D01*
X292050Y-6500D02*X293100Y-5450D01*
X294900Y-4700D02*X296100Y-3500D01*
Y-9500D01*
X294900D02*X297150D01*
X298950D02*X299700D01*
X301500Y-4700D02*X302700Y-3500D01*
Y-9500D01*
X301500D02*X303750D01*
X305550Y-8750D02*X306300Y-9500D01*
X305550Y-4250D02*Y-8750D01*
Y-4250D02*X306300Y-3500D01*
X307800D01*
X308550Y-4250D01*
Y-8750D01*
X307800Y-9500D02*X308550Y-8750D01*
X306300Y-9500D02*X307800D01*
X305550Y-8000D02*X308550Y-5000D01*
X310350Y-4250D02*X311100Y-3500D01*
X313350D01*
X314100Y-4250D01*
Y-5750D01*
X310350Y-9500D02*X314100Y-5750D01*
X310350Y-9500D02*X314100D01*
X315900Y-4250D02*X316650Y-3500D01*
X318150D01*
X318900Y-4250D01*
X318150Y-9500D02*X318900Y-8750D01*
X316650Y-9500D02*X318150D01*
X315900Y-8750D02*X316650Y-9500D01*
Y-6200D02*X318150D01*
X318900Y-4250D02*Y-5450D01*
Y-6950D02*Y-8750D01*
Y-6950D02*X318150Y-6200D01*
X318900Y-5450D02*X318150Y-6200D01*
X322950Y-3500D02*X323700Y-4250D01*
X321450Y-3500D02*X322950D01*
X320700Y-4250D02*X321450Y-3500D01*
X320700Y-4250D02*Y-8750D01*
X321450Y-9500D01*
X322950Y-6200D02*X323700Y-6950D01*
X320700Y-6200D02*X322950D01*
X321450Y-9500D02*X322950D01*
X323700Y-8750D01*
Y-6950D02*Y-8750D01*
X325500Y-4250D02*X326250Y-3500D01*
X328500D01*
X329250Y-4250D01*
Y-5750D01*
X325500Y-9500D02*X329250Y-5750D01*
X325500Y-9500D02*X329250D01*
X331050Y-11000D02*X332550Y-9500D01*
X334350Y-4700D02*X335550Y-3500D01*
Y-9500D01*
X334350D02*X336600D01*
X338400Y-4700D02*X339600Y-3500D01*
Y-9500D01*
X338400D02*X340650D01*
X342450Y-8750D02*X343200Y-9500D01*
X342450Y-7550D02*Y-8750D01*
Y-7550D02*X343500Y-6500D01*
X344400D01*
X345450Y-7550D01*
Y-8750D01*
X344700Y-9500D02*X345450Y-8750D01*
X343200Y-9500D02*X344700D01*
X342450Y-5450D02*X343500Y-6500D01*
X342450Y-4250D02*Y-5450D01*
Y-4250D02*X343200Y-3500D01*
X344700D01*
X345450Y-4250D01*
Y-5450D01*
X344400Y-6500D02*X345450Y-5450D01*
X347250Y-4700D02*X348450Y-3500D01*
Y-9500D01*
X347250D02*X349500D01*
X351300D02*X352050D01*
X353850Y-4700D02*X355050Y-3500D01*
Y-9500D01*
X353850D02*X356100D01*
X357900Y-8750D02*X358650Y-9500D01*
X357900Y-4250D02*Y-8750D01*
Y-4250D02*X358650Y-3500D01*
X360150D01*
X360900Y-4250D01*
Y-8750D01*
X360150Y-9500D02*X360900Y-8750D01*
X358650Y-9500D02*X360150D01*
X357900Y-8000D02*X360900Y-5000D01*
X362700Y-4250D02*X363450Y-3500D01*
X365700D01*
X366450Y-4250D01*
Y-5750D01*
X362700Y-9500D02*X366450Y-5750D01*
X362700Y-9500D02*X366450D01*
X368250Y-4250D02*X369000Y-3500D01*
X370500D01*
X371250Y-4250D01*
X370500Y-9500D02*X371250Y-8750D01*
X369000Y-9500D02*X370500D01*
X368250Y-8750D02*X369000Y-9500D01*
Y-6200D02*X370500D01*
X371250Y-4250D02*Y-5450D01*
Y-6950D02*Y-8750D01*
Y-6950D02*X370500Y-6200D01*
X371250Y-5450D02*X370500Y-6200D01*
X375300Y-3500D02*X376050Y-4250D01*
X373800Y-3500D02*X375300D01*
X373050Y-4250D02*X373800Y-3500D01*
X373050Y-4250D02*Y-8750D01*
X373800Y-9500D01*
X375300Y-6200D02*X376050Y-6950D01*
X373050Y-6200D02*X375300D01*
X373800Y-9500D02*X375300D01*
X376050Y-8750D01*
Y-6950D02*Y-8750D01*
X377850Y-4250D02*X378600Y-3500D01*
X380850D01*
X381600Y-4250D01*
Y-5750D01*
X377850Y-9500D02*X381600Y-5750D01*
X377850Y-9500D02*X381600D01*
X386850Y-7250D02*Y-9500D01*
Y-7250D02*X387600Y-6500D01*
X388350D01*
X389100Y-7250D01*
Y-9500D01*
Y-7250D02*X389850Y-6500D01*
X390600D01*
X391350Y-7250D01*
Y-9500D01*
X386100Y-6500D02*X386850Y-7250D01*
G54D47*X393150Y-5000D02*Y-5150D01*
G54D46*Y-7250D02*Y-9500D01*
X394650Y-3500D02*Y-8750D01*
X395400Y-9500D01*
X397650D02*X399900D01*
X400650Y-8750D01*
X399900Y-8000D02*X400650Y-8750D01*
X397650Y-8000D02*X399900D01*
X396900Y-7250D02*X397650Y-8000D01*
X396900Y-7250D02*X397650Y-6500D01*
X399900D01*
X400650Y-7250D01*
X396900Y-8750D02*X397650Y-9500D01*
X200750Y146610D02*Y140610D01*
X202700Y146610D02*X203750Y145560D01*
Y141660D01*
X202700Y140610D02*X203750Y141660D01*
X200000Y140610D02*X202700D01*
X200000Y146610D02*X202700D01*
X207800Y143610D02*X208550Y142860D01*
X206300Y143610D02*X207800D01*
X205550Y142860D02*X206300Y143610D01*
X205550Y142860D02*Y141360D01*
X206300Y140610D01*
X208550Y143610D02*Y141360D01*
X209300Y140610D01*
X206300D02*X207800D01*
X208550Y141360D01*
X211850Y146610D02*Y141360D01*
X212600Y140610D01*
X211100Y144360D02*X212600D01*
X214850Y140610D02*X217100D01*
X214100Y141360D02*X214850Y140610D01*
X214100Y142860D02*Y141360D01*
Y142860D02*X214850Y143610D01*
X216350D01*
X217100Y142860D01*
X214100Y142110D02*X217100D01*
Y142860D02*Y142110D01*
X218900Y144360D02*X219650D01*
X218900Y142860D02*X219650D01*
X224150Y146610D02*X227150D01*
X225650D02*Y140610D01*
X228950Y143610D02*Y141360D01*
X229700Y140610D01*
X231200D01*
X231950Y141360D01*
Y143610D02*Y141360D01*
X234500Y140610D02*X236750D01*
X233750Y141360D02*X234500Y140610D01*
X233750Y142860D02*Y141360D01*
Y142860D02*X234500Y143610D01*
X236000D01*
X236750Y142860D01*
X233750Y142110D02*X236750D01*
Y142860D02*Y142110D01*
X241250Y146610D02*Y140610D01*
Y146610D02*X244250D01*
X241250Y143910D02*X243500D01*
X246800Y140610D02*X249050D01*
X246050Y141360D02*X246800Y140610D01*
X246050Y142860D02*Y141360D01*
Y142860D02*X246800Y143610D01*
X248300D01*
X249050Y142860D01*
X246050Y142110D02*X249050D01*
Y142860D02*Y142110D01*
X250850Y146610D02*Y140610D01*
Y141360D02*X251600Y140610D01*
X253100D01*
X253850Y141360D01*
Y142860D02*Y141360D01*
X253100Y143610D02*X253850Y142860D01*
X251600Y143610D02*X253100D01*
X250850Y142860D02*X251600Y143610D01*
X258350Y145410D02*X259550Y146610D01*
Y140610D01*
X258350D02*X260600D01*
X262400Y145860D02*X263150Y146610D01*
X265400D01*
X266150Y145860D01*
Y144360D01*
X262400Y140610D02*X266150Y144360D01*
X262400Y140610D02*X266150D01*
X270650Y145410D02*X271850Y146610D01*
Y140610D01*
X270650D02*X272900D01*
X274700Y145410D02*X275900Y146610D01*
Y140610D01*
X274700D02*X276950D01*
X278750Y144360D02*X279500D01*
X278750Y142860D02*X279500D01*
X281300Y145860D02*X282050Y146610D01*
X283550D01*
X284300Y145860D01*
X283550Y140610D02*X284300Y141360D01*
X282050Y140610D02*X283550D01*
X281300Y141360D02*X282050Y140610D01*
Y143910D02*X283550D01*
X284300Y145860D02*Y144660D01*
Y143160D02*Y141360D01*
Y143160D02*X283550Y143910D01*
X284300Y144660D02*X283550Y143910D01*
X286100Y142860D02*X289100Y146610D01*
X286100Y142860D02*X289850D01*
X289100Y146610D02*Y140610D01*
X291650Y144360D02*X292400D01*
X291650Y142860D02*X292400D01*
X294200Y145860D02*X294950Y146610D01*
X296450D01*
X297200Y145860D01*
X296450Y140610D02*X297200Y141360D01*
X294950Y140610D02*X296450D01*
X294200Y141360D02*X294950Y140610D01*
Y143910D02*X296450D01*
X297200Y145860D02*Y144660D01*
Y143160D02*Y141360D01*
Y143160D02*X296450Y143910D01*
X297200Y144660D02*X296450Y143910D01*
X299000Y146610D02*X302000D01*
X299000D02*Y143610D01*
X299750Y144360D01*
X301250D01*
X302000Y143610D01*
Y141360D01*
X301250Y140610D02*X302000Y141360D01*
X299750Y140610D02*X301250D01*
X299000Y141360D02*X299750Y140610D01*
X306500Y145860D02*X307250Y146610D01*
X309500D01*
X310250Y145860D01*
Y144360D01*
X306500Y140610D02*X310250Y144360D01*
X306500Y140610D02*X310250D01*
X312050Y141360D02*X312800Y140610D01*
X312050Y145860D02*Y141360D01*
Y145860D02*X312800Y146610D01*
X314300D01*
X315050Y145860D01*
Y141360D01*
X314300Y140610D02*X315050Y141360D01*
X312800Y140610D02*X314300D01*
X312050Y142110D02*X315050Y145110D01*
X316850Y145410D02*X318050Y146610D01*
Y140610D01*
X316850D02*X319100D01*
X321650D02*X323900Y143610D01*
Y145860D02*Y143610D01*
X323150Y146610D02*X323900Y145860D01*
X321650Y146610D02*X323150D01*
X320900Y145860D02*X321650Y146610D01*
X320900Y145860D02*Y144360D01*
X321650Y143610D01*
X323900D01*
X328400Y146610D02*Y141360D01*
X329150Y140610D01*
X330650D01*
X331400Y141360D01*
Y146610D02*Y141360D01*
X333200Y146610D02*X336200D01*
X334700D02*Y140610D01*
X339050D02*X341000D01*
X338000Y141660D02*X339050Y140610D01*
X338000Y145560D02*Y141660D01*
Y145560D02*X339050Y146610D01*
X341000D01*
X200000Y160110D02*Y155610D01*
Y160110D02*X201050Y161610D01*
X202700D01*
X203750Y160110D01*
Y155610D01*
X200000Y158610D02*X203750D01*
X205550D02*Y156360D01*
X206300Y155610D01*
X207800D01*
X208550Y156360D01*
Y158610D02*Y156360D01*
X211100Y161610D02*Y156360D01*
X211850Y155610D01*
X210350Y159360D02*X211850D01*
X213350Y161610D02*Y155610D01*
Y157860D02*X214100Y158610D01*
X215600D01*
X216350Y157860D01*
Y155610D01*
X218150Y157860D02*Y156360D01*
Y157860D02*X218900Y158610D01*
X220400D01*
X221150Y157860D01*
Y156360D01*
X220400Y155610D02*X221150Y156360D01*
X218900Y155610D02*X220400D01*
X218150Y156360D02*X218900Y155610D01*
X223700Y157860D02*Y155610D01*
Y157860D02*X224450Y158610D01*
X225950D01*
X222950D02*X223700Y157860D01*
X227750Y159360D02*X228500D01*
X227750Y157860D02*X228500D01*
X233000Y161610D02*Y158610D01*
X233750Y155610D01*
X235250Y158610D01*
X236750Y155610D01*
X237500Y158610D01*
Y161610D02*Y158610D01*
X241550D02*X242300Y157860D01*
X240050Y158610D02*X241550D01*
X239300Y157860D02*X240050Y158610D01*
X239300Y157860D02*Y156360D01*
X240050Y155610D01*
X242300Y158610D02*Y156360D01*
X243050Y155610D01*
X240050D02*X241550D01*
X242300Y156360D01*
X244850Y161610D02*Y156360D01*
X245600Y155610D01*
X247850Y161610D02*Y156360D01*
X248600Y155610D01*
X247100Y159360D02*X248600D01*
X250850Y155610D02*X253100D01*
X250100Y156360D02*X250850Y155610D01*
X250100Y157860D02*Y156360D01*
Y157860D02*X250850Y158610D01*
X252350D01*
X253100Y157860D01*
X250100Y157110D02*X253100D01*
Y157860D02*Y157110D01*
X255650Y157860D02*Y155610D01*
Y157860D02*X256400Y158610D01*
X257900D01*
X254900D02*X255650Y157860D01*
X263150Y161610D02*Y155610D01*
X262400Y161610D02*X265400D01*
X266150Y160860D01*
Y159360D01*
X265400Y158610D02*X266150Y159360D01*
X263150Y158610D02*X265400D01*
G54D47*X267950Y160110D02*Y159960D01*
G54D46*Y157860D02*Y155610D01*
X270200Y157860D02*Y155610D01*
Y157860D02*X270950Y158610D01*
X272450D01*
X269450D02*X270200Y157860D01*
X275000D02*Y155610D01*
Y157860D02*X275750Y158610D01*
X277250D01*
X274250D02*X275000Y157860D01*
G54D47*X279050Y160110D02*Y159960D01*
G54D46*Y157860D02*Y155610D01*
X200000Y176610D02*X203000D01*
X201500D02*Y170610D01*
G54D47*X204800Y175110D02*Y174960D01*
G54D46*Y172860D02*Y170610D01*
X207050Y176610D02*Y171360D01*
X207800Y170610D01*
X206300Y174360D02*X207800D01*
X209300Y176610D02*Y171360D01*
X210050Y170610D01*
X212300D02*X214550D01*
X211550Y171360D02*X212300Y170610D01*
X211550Y172860D02*Y171360D01*
Y172860D02*X212300Y173610D01*
X213800D01*
X214550Y172860D01*
X211550Y172110D02*X214550D01*
Y172860D02*Y172110D01*
X216350Y174360D02*X217100D01*
X216350Y172860D02*X217100D01*
X222350Y176610D02*Y170610D01*
X224300Y176610D02*X225350Y175560D01*
Y171660D01*
X224300Y170610D02*X225350Y171660D01*
X221600Y170610D02*X224300D01*
X221600Y176610D02*X224300D01*
X227150Y172860D02*Y171360D01*
Y172860D02*X227900Y173610D01*
X229400D01*
X230150Y172860D01*
Y171360D01*
X229400Y170610D02*X230150Y171360D01*
X227900Y170610D02*X229400D01*
X227150Y171360D02*X227900Y170610D01*
X232700Y172860D02*Y170610D01*
Y172860D02*X233450Y173610D01*
X234200D01*
X234950Y172860D01*
Y170610D01*
Y172860D02*X235700Y173610D01*
X236450D01*
X237200Y172860D01*
Y170610D01*
X231950Y173610D02*X232700Y172860D01*
X239000Y175860D02*X239750Y176610D01*
X241250D01*
X242000Y175860D01*
X241250Y170610D02*X242000Y171360D01*
X239750Y170610D02*X241250D01*
X239000Y171360D02*X239750Y170610D01*
Y173910D02*X241250D01*
X242000Y175860D02*Y174660D01*
Y173160D02*Y171360D01*
Y173160D02*X241250Y173910D01*
X242000Y174660D02*X241250Y173910D01*
X243800Y175860D02*X244550Y176610D01*
X246800D01*
X247550Y175860D01*
Y174360D01*
X243800Y170610D02*X247550Y174360D01*
X243800Y170610D02*X247550D01*
X249350Y176610D02*X252350D01*
X253100Y175860D01*
Y174360D01*
X252350Y173610D02*X253100Y174360D01*
X250100Y173610D02*X252350D01*
X250100Y176610D02*Y170610D01*
X251300Y173610D02*X253100Y170610D01*
X254900Y176610D02*Y170610D01*
Y176610D02*X257900D01*
X254900Y173910D02*X257150D01*
X262400Y173610D02*X265400D01*
X269900Y176610D02*Y170610D01*
Y176610D02*X272900D01*
X269900Y173910D02*X272150D01*
X276950Y173610D02*X277700Y172860D01*
X275450Y173610D02*X276950D01*
X274700Y172860D02*X275450Y173610D01*
X274700Y172860D02*Y171360D01*
X275450Y170610D01*
X277700Y173610D02*Y171360D01*
X278450Y170610D01*
X275450D02*X276950D01*
X277700Y171360D01*
X280250Y176610D02*Y170610D01*
Y171360D02*X281000Y170610D01*
X282500D01*
X283250Y171360D01*
Y172860D02*Y171360D01*
X282500Y173610D02*X283250Y172860D01*
X281000Y173610D02*X282500D01*
X280250Y172860D02*X281000Y173610D01*
X285800Y172860D02*Y170610D01*
Y172860D02*X286550Y173610D01*
X288050D01*
X285050D02*X285800Y172860D01*
G54D47*X289850Y175110D02*Y174960D01*
G54D46*Y172860D02*Y170610D01*
X292100Y173610D02*X294350D01*
X291350Y172860D02*X292100Y173610D01*
X291350Y172860D02*Y171360D01*
X292100Y170610D01*
X294350D01*
X298400Y173610D02*X299150Y172860D01*
X296900Y173610D02*X298400D01*
X296150Y172860D02*X296900Y173610D01*
X296150Y172860D02*Y171360D01*
X296900Y170610D01*
X299150Y173610D02*Y171360D01*
X299900Y170610D01*
X296900D02*X298400D01*
X299150Y171360D01*
X302450Y176610D02*Y171360D01*
X303200Y170610D01*
X301700Y174360D02*X303200D01*
G54D47*X304700Y175110D02*Y174960D01*
G54D46*Y172860D02*Y170610D01*
X306200Y172860D02*Y171360D01*
Y172860D02*X306950Y173610D01*
X308450D01*
X309200Y172860D01*
Y171360D01*
X308450Y170610D02*X309200Y171360D01*
X306950Y170610D02*X308450D01*
X306200Y171360D02*X306950Y170610D01*
X311750Y172860D02*Y170610D01*
Y172860D02*X312500Y173610D01*
X313250D01*
X314000Y172860D01*
Y170610D01*
X311000Y173610D02*X311750Y172860D01*
X319250Y176610D02*Y170610D01*
X321200Y176610D02*X322250Y175560D01*
Y171660D01*
X321200Y170610D02*X322250Y171660D01*
X318500Y170610D02*X321200D01*
X318500Y176610D02*X321200D01*
X324800Y172860D02*Y170610D01*
Y172860D02*X325550Y173610D01*
X327050D01*
X324050D02*X324800Y172860D01*
X331100Y173610D02*X331850Y172860D01*
X329600Y173610D02*X331100D01*
X328850Y172860D02*X329600Y173610D01*
X328850Y172860D02*Y171360D01*
X329600Y170610D01*
X331850Y173610D02*Y171360D01*
X332600Y170610D01*
X329600D02*X331100D01*
X331850Y171360D01*
X334400Y173610D02*Y171360D01*
X335150Y170610D01*
X335900D01*
X336650Y171360D01*
Y173610D02*Y171360D01*
X337400Y170610D01*
X338150D01*
X338900Y171360D01*
Y173610D02*Y171360D01*
G54D47*X340700Y175110D02*Y174960D01*
G54D46*Y172860D02*Y170610D01*
X342950Y172860D02*Y170610D01*
Y172860D02*X343700Y173610D01*
X344450D01*
X345200Y172860D01*
Y170610D01*
X342200Y173610D02*X342950Y172860D01*
X349250Y173610D02*X350000Y172860D01*
X347750Y173610D02*X349250D01*
X347000Y172860D02*X347750Y173610D01*
X347000Y172860D02*Y171360D01*
X347750Y170610D01*
X349250D01*
X350000Y171360D01*
X347000Y169110D02*X347750Y168360D01*
X349250D01*
X350000Y169110D01*
Y173610D02*Y169110D01*
M02*
