G04 start of page 7 for group -4079 idx -4079 *
G04 Title: Dom32RF, topsilk *
G04 Creator: pcb 4.0.2 *
G04 CreationDate: Tue Feb 12 11:34:35 2019 UTC *
G04 For: walter *
G04 Format: Gerber/RS-274X *
G04 PCB-Dimensions (mil): 1181.10 1181.10 *
G04 PCB-Coordinate-Origin: lower left *
%MOIN*%
%FSLAX25Y25*%
%LNTOPSILK*%
%ADD43C,0.0118*%
%ADD42C,0.0200*%
%ADD41C,0.0100*%
%ADD40C,0.0080*%
G54D40*X19489Y57874D02*Y57088D01*
X24999Y57874D02*Y57088D01*
G54D41*X85575Y85654D02*Y117654D01*
X117575Y85654D02*X85575D01*
X117575Y117654D02*Y85654D01*
X85575Y117654D02*X117575D01*
X46575Y70857D02*X106475D01*
X46075Y70357D02*X46575Y70857D01*
X46075Y70357D02*Y10357D01*
X107075D02*X106575Y9857D01*
X46575D02*X106575D01*
X46575D02*X46075Y10357D01*
X107075Y70357D02*Y10357D01*
Y70357D02*X106575Y70857D01*
G54D40*X40157Y49606D02*Y48820D01*
X34647Y49606D02*Y48820D01*
X34449Y8269D02*X35235D01*
X34449Y13779D02*X35235D01*
G54D41*X25490Y101816D02*X38290D01*
Y87916D01*
X25490D02*X38290D01*
X25490Y101816D02*Y87916D01*
G54D40*X19489Y77165D02*Y76379D01*
X24999Y77165D02*Y76379D01*
X31300Y77165D02*Y76379D01*
X36810Y77165D02*Y76379D01*
G54D42*X46765Y74836D02*X70165D01*
G54D41*X73465Y80936D01*
Y117636D02*Y80936D01*
X43465Y117636D02*X73465D01*
X43465D02*Y80936D01*
X46765Y74836D01*
X5079Y93858D02*X15079D01*
Y103843D02*X5079Y103858D01*
X15094Y13858D02*X15079Y103858D01*
X5079Y13858D02*X15079D01*
X5079Y103858D02*Y13858D01*
G54D43*X83709Y96891D02*Y96091D01*
X80209D02*X83709D01*
X79709Y96591D02*X80209Y96091D01*
X79709Y97091D02*Y96591D01*
X80209Y97591D02*X79709Y97091D01*
X80209Y97591D02*X80709D01*
X83209Y94891D02*X83709Y94391D01*
Y92891D01*
X83209Y92391D01*
X82209D02*X83209D01*
X79709Y94891D02*X82209Y92391D01*
X79709Y94891D02*Y92391D01*
X109083Y77508D02*X112583D01*
X109083D02*X108583Y77008D01*
Y76008D01*
X109083Y75508D01*
X112583D01*
X112083Y74308D02*X112583Y73808D01*
Y72308D01*
X112083Y71808D01*
X111083D02*X112083D01*
X108583Y74308D02*X111083Y71808D01*
X108583Y74308D02*Y71808D01*
X76134Y103848D02*X77434D01*
X75434Y104548D02*X76134Y103848D01*
X75434Y107148D02*Y104548D01*
Y107148D02*X76134Y107848D01*
X77434D01*
X78634Y107048D02*X79434Y107848D01*
Y103848D01*
X78634D02*X80134D01*
X34486Y108898D02*Y105398D01*
Y108898D02*X33986Y109398D01*
X32986D02*X33986D01*
X32986D02*X32486Y108898D01*
Y105398D01*
X31286Y106198D02*X30486Y105398D01*
Y109398D02*Y105398D01*
X29786Y109398D02*X31286D01*
X21972Y86712D02*Y85412D01*
X21272Y84712D02*X21972Y85412D01*
X18672Y84712D02*X21272D01*
X18672D02*X17972Y85412D01*
Y86712D02*Y85412D01*
X18472Y87912D02*X17972Y88412D01*
Y89912D02*Y88412D01*
Y89912D02*X18472Y90412D01*
X19472D01*
X21972Y87912D02*X19472Y90412D01*
X21972D02*Y87912D01*
X35752Y66436D02*Y65136D01*
X35052Y64436D02*X35752Y65136D01*
X32452Y64436D02*X35052D01*
X32452D02*X31752Y65136D01*
Y66436D02*Y65136D01*
X32252Y67636D02*X31752Y68136D01*
Y69136D02*Y68136D01*
Y69136D02*X32252Y69636D01*
X35752Y69136D02*X35252Y69636D01*
X35752Y69136D02*Y68136D01*
X35252Y67636D02*X35752Y68136D01*
X33552Y69136D02*Y68136D01*
X32252Y69636D02*X33052D01*
X34052D02*X35252D01*
X34052D02*X33552Y69136D01*
X33052Y69636D02*X33552Y69136D01*
X20335Y45767D02*Y43767D01*
Y45767D02*X20835Y46267D01*
X21835D01*
X22335Y45767D02*X21835Y46267D01*
X22335Y45767D02*Y44267D01*
X20335D02*X24335D01*
X22335Y45067D02*X24335Y46267D01*
X20835Y47467D02*X20335Y47967D01*
Y49467D02*Y47967D01*
Y49467D02*X20835Y49967D01*
X21835D01*
X24335Y47467D02*X21835Y49967D01*
X24335D02*Y47467D01*
X10547Y107142D02*X11347D01*
X10547Y110642D02*Y107142D01*
X11047Y111142D02*X10547Y110642D01*
X11047Y111142D02*X11547D01*
X12047Y110642D02*X11547Y111142D01*
X12047Y110642D02*Y110142D01*
X9347Y107942D02*X8547Y107142D01*
Y111142D02*Y107142D01*
X7847Y111142D02*X9347D01*
X39311Y42060D02*Y40060D01*
X38811Y39560D01*
X37811D02*X38811D01*
X37311Y40060D02*X37811Y39560D01*
X37311Y41560D02*Y40060D01*
X35311Y41560D02*X39311D01*
X37311Y40760D02*X35311Y39560D01*
X38811Y38360D02*X39311Y37860D01*
Y36860D01*
X38811Y36360D01*
X35311Y36860D02*X35811Y36360D01*
X35311Y37860D02*Y36860D01*
X35811Y38360D02*X35311Y37860D01*
X37511D02*Y36860D01*
X38011Y36360D02*X38811D01*
X35811D02*X37011D01*
X37511Y36860D01*
X38011Y36360D02*X37511Y36860D01*
X25296Y8720D02*X27296D01*
X25296D02*X24796Y9220D01*
Y10220D02*Y9220D01*
X25296Y10720D02*X24796Y10220D01*
X25296Y10720D02*X26796D01*
Y12720D02*Y8720D01*
X25996Y10720D02*X24796Y12720D01*
X23596Y9520D02*X22796Y8720D01*
Y12720D02*Y8720D01*
X22096Y12720D02*X23596D01*
M02*
